<?xml version="1.0" encoding="UTF-8"?><svg id="Layer_1" xmlns="http://www.w3.org/2000/svg" viewBox="0 0 999.57 125.56"><defs><style>.cls-1{fill:#fff;}</style></defs><path class="cls-1" d="m69.06,0c-12.9,0-23.53,9.73-24.94,22.25-.01.06-.02.11-.02.17-.06.5-.1,1-.12,1.5-2.13,23.35-14.87,43.62-33.36,55.98v.03c-6.42,4.55-10.62,12.04-10.62,20.51,0,5.41,1.72,10.43,4.62,14.53,1.65,2.32,3.68,4.33,5.99,5.97,4.09,2.91,9.1,4.61,14.49,4.61,8.45,0,15.93-4.18,20.49-10.58,2.38-3.36,3.96-7.32,4.46-11.62.07-.59.12-1.18.14-1.78,2.11-23.06,14.58-43.13,32.71-55.52.23-.15.46-.31.69-.47,6.4-4.55,10.57-12.03,10.57-20.48,0-.91-.05-1.81-.15-2.69-1.34-12.6-12-22.43-24.96-22.43Z"/><circle class="cls-1" cx="226" cy="100.45" r="25.11"/><path class="cls-1" d="m188.52,41.49c.23-.27.46-.54.67-.82.07-.09.14-.18.21-.27.24-.31.47-.63.7-.95.04-.05.08-.11.12-.16.53-.77,1.02-1.58,1.46-2.41.04-.08.08-.16.13-.24.17-.33.34-.66.49-1,.05-.11.1-.22.15-.34.14-.32.28-.65.41-.99.04-.11.09-.22.13-.33.15-.39.29-.79.42-1.19.01-.05.03-.09.05-.13.14-.46.27-.92.39-1.38.02-.08.04-.17.06-.26.09-.37.17-.74.24-1.11.03-.15.05-.3.08-.45.06-.32.11-.64.15-.96.02-.16.04-.33.06-.49.04-.33.07-.66.09-1,.01-.15.03-.3.03-.44.03-.48.04-.96.04-1.45,0-.45-.01-.9-.04-1.34,0-.04,0-.08,0-.12-.11-2-.46-3.93-1.02-5.78,0-.01,0-.03-.01-.04-.1-.32-.2-.63-.31-.95-.02-.06-.04-.12-.06-.18-.1-.29-.21-.57-.32-.85-.03-.08-.06-.17-.1-.25-.11-.27-.22-.53-.34-.79-.04-.1-.08-.19-.13-.29-.12-.25-.24-.5-.36-.75-.05-.1-.1-.2-.16-.31-.12-.24-.25-.47-.39-.71-.06-.1-.12-.21-.18-.31-.13-.23-.27-.45-.41-.68-.07-.1-.13-.21-.2-.31-.14-.22-.29-.44-.44-.65-.07-.1-.15-.2-.22-.31-.15-.21-.3-.42-.46-.63-.08-.1-.15-.2-.23-.29-.16-.21-.32-.41-.49-.61-.08-.09-.16-.18-.24-.27-.17-.2-.35-.4-.53-.59-.07-.08-.15-.16-.23-.24-.19-.2-.38-.4-.57-.59-.05-.05-.11-.1-.16-.16-.7-.68-1.44-1.32-2.21-1.91-.07-.05-.14-.11-.21-.16-.19-.14-.38-.28-.58-.41-.13-.09-.25-.18-.38-.27-.18-.12-.36-.24-.54-.36-.15-.09-.29-.19-.44-.28-.18-.11-.36-.21-.54-.32-.16-.09-.32-.19-.48-.28-.18-.1-.36-.19-.53-.28-.17-.09-.34-.18-.51-.26-.18-.09-.36-.17-.54-.25-.18-.08-.36-.17-.54-.24-.18-.08-.36-.15-.54-.23-.19-.08-.37-.15-.56-.22-.18-.07-.36-.13-.54-.2-.19-.07-.39-.13-.59-.2-.18-.06-.36-.12-.54-.17-.2-.06-.41-.12-.61-.17-.18-.05-.36-.1-.54-.14-.21-.05-.43-.1-.64-.15-.18-.04-.36-.08-.54-.12-.22-.04-.45-.08-.68-.12-.17-.03-.35-.06-.52-.09-.24-.04-.48-.06-.72-.09-.16-.02-.33-.04-.49-.06-.27-.03-.54-.04-.81-.06-.14,0-.28-.02-.42-.03-.41-.02-.83-.03-1.25-.03s-.83.01-1.25.03c-.14,0-.28.02-.43.03-.27.02-.54.04-.81.06-.17.02-.33.04-.5.06-.24.03-.48.06-.71.09-.18.03-.35.06-.53.09-.22.04-.44.07-.66.12-.18.04-.37.08-.55.12-.21.05-.42.09-.62.14-.19.05-.37.1-.56.15-.2.05-.4.11-.59.17-.19.06-.38.12-.56.18-.19.06-.38.12-.56.19-.19.07-.38.14-.57.21-.18.07-.36.14-.53.21-.19.08-.38.16-.57.24-.17.07-.33.15-.5.23-.19.09-.38.18-.57.27-.16.08-.31.16-.47.24-.19.1-.39.2-.58.31-.14.08-.28.16-.42.24-.2.12-.4.23-.59.35-.12.07-.23.15-.35.22-.21.14-.43.27-.64.42-.05.03-.09.07-.14.1-.85.59-1.66,1.22-2.42,1.91-.03.03-.07.06-.1.09-.22.2-.43.4-.64.6-.06.06-.13.12-.2.19-.2.2-.39.4-.58.6-.07.08-.15.15-.22.23-.18.2-.36.4-.54.61-.07.08-.15.17-.22.25-.17.21-.34.42-.51.63-.07.09-.14.18-.21.27-.16.21-.33.43-.48.65-.07.09-.13.18-.19.27-.16.22-.31.45-.46.68-.06.09-.11.18-.17.27-.15.24-.3.48-.44.72-.05.08-.1.17-.14.25-.14.25-.29.51-.42.77-.04.07-.07.14-.11.22-.14.27-.28.55-.41.83-.02.05-.04.1-.06.14-1.31,2.84-2.11,5.97-2.27,9.27,0,.01,0,.03,0,.04-2.13,23.35-14.87,43.62-33.36,55.98v.03c-6.42,4.55-10.62,12.04-10.62,20.51,0,5.41,1.72,10.43,4.62,14.53,1.65,2.32,3.68,4.33,5.99,5.97,4.09,2.91,9.1,4.61,14.49,4.61,8.45,0,15.93-4.18,20.49-10.58,2.38-3.36,3.96-7.32,4.46-11.62.07-.59.12-1.18.14-1.78,2.11-23.06,14.58-43.13,32.71-55.52,0,0,0,0,0,0,.13-.09.26-.18.39-.26.1-.07.2-.13.3-.2.08-.05.15-.11.22-.17.23-.17.46-.35.69-.52.12-.1.25-.19.37-.29.31-.25.61-.51.9-.77.04-.03.08-.07.12-.1.34-.31.68-.63,1.01-.96.06-.06.11-.12.17-.18.26-.27.52-.55.77-.83.08-.09.16-.18.23-.27Z"/><path class="cls-1" d="m322.81,30.56h21.36l3.68,48.42v9.39h2.21v-9.39l3.68-48.42h21.36v64.44h-11.05v-43.08l1.1-14.73h-2.21l-4.79,57.81h-18.23l-4.97-57.81h-2.21l1.1,14.73v43.08h-11.05V30.56Z"/><path class="cls-1" d="m414.68,55.6c0-8.34,2.1-14.82,6.31-19.42,4.2-4.6,10.02-6.9,17.44-6.9s13.24,2.3,17.44,6.9c4.2,4.6,6.31,11.08,6.31,19.42v14.36c0,8.59-2.1,15.13-6.31,19.61-4.2,4.48-10.02,6.72-17.44,6.72s-13.24-2.24-17.44-6.72c-4.2-4.48-6.31-11.01-6.31-19.61v-14.36Zm23.75,29.64c2.21,0,4.05-.35,5.52-1.06,1.47-.71,2.67-1.7,3.59-2.99s1.56-2.82,1.93-4.6c.37-1.78.55-3.74.55-5.89v-15.83c0-2.03-.22-3.93-.64-5.71-.43-1.78-1.1-3.31-2.02-4.6s-2.12-2.32-3.59-3.08c-1.47-.77-3.25-1.15-5.34-1.15s-3.87.38-5.34,1.15c-1.47.77-2.67,1.79-3.59,3.08-.92,1.29-1.6,2.82-2.02,4.6-.43,1.78-.64,3.68-.64,5.71v15.83c0,2.15.18,4.11.55,5.89.37,1.78,1.01,3.31,1.93,4.6.92,1.29,2.12,2.29,3.59,2.99,1.47.71,3.31,1.06,5.52,1.06Z"/><path class="cls-1" d="m549.72,95h-12.15v-19.33c0-1.47-.38-2.67-1.15-3.59-.77-.92-2.04-1.38-3.82-1.38h-13.99v24.3h-12.15V30.56h24.67c3.31,0,6.23.46,8.74,1.38,2.52.92,4.62,2.2,6.31,3.82,1.69,1.63,2.98,3.51,3.87,5.66.89,2.15,1.33,4.45,1.33,6.9v2.21c0,2.64-.71,5.11-2.12,7.41-1.41,2.3-3.59,4.07-6.54,5.29v1.66c2.15.25,3.85,1.07,5.11,2.49,1.26,1.41,1.89,3.19,1.89,5.34v22.28Zm-31.11-35.9h11.6c2.95,0,5.19-.69,6.72-2.07,1.53-1.38,2.3-3.33,2.3-5.84v-1.11c0-2.15-.77-4-2.3-5.57-1.53-1.57-3.77-2.35-6.72-2.35h-11.6v16.94Z"/><path class="cls-1" d="m607.98,70.69v24.3h-12.15V30.56h25.22c3.31,0,6.2.54,8.65,1.61,2.45,1.07,4.49,2.49,6.12,4.23,1.62,1.75,2.85,3.74,3.68,5.98.83,2.24,1.24,4.53,1.24,6.86v2.21c0,2.39-.41,4.74-1.24,7.04-.83,2.3-2.06,4.36-3.68,6.17-1.63,1.81-3.67,3.27-6.12,4.37-2.46,1.1-5.34,1.66-8.65,1.66h-13.07Zm0-11.6h11.87c2.7,0,4.83-.74,6.4-2.21,1.56-1.47,2.35-3.38,2.35-5.71v-1.11c0-2.33-.78-4.23-2.35-5.71-1.56-1.47-3.7-2.21-6.4-2.21h-11.87v16.94Z"/><path class="cls-1" d="m684.29,30.56h12.15v26.33h20.8v-26.33h12.15v64.44h-12.15v-26.51h-20.8v26.51h-12.15V30.56Z"/><path class="cls-1" d="m775.7,30.56h40.69v11.6h-28.54v14.73h27.43v11.6h-27.43v14.91h29.64v11.6h-41.79V30.56Z"/><path class="cls-1" d="m908.99,30.56v42.16c0,7.36-1.95,13.13-5.85,17.31-3.9,4.17-9.68,6.26-17.35,6.26s-13.46-2.09-17.35-6.26c-3.9-4.17-5.85-9.94-5.85-17.31V30.56h12.15v42.16c0,3.81.89,6.78,2.67,8.93,1.78,2.15,4.57,3.22,8.38,3.22s6.6-1.07,8.38-3.22c1.78-2.15,2.67-5.12,2.67-8.93V30.56h12.15Z"/><path class="cls-1" d="m986.31,50.26c0-2.58-1-4.82-2.99-6.72-1.99-1.9-4.8-2.85-8.42-2.85-3.07,0-5.49.63-7.27,1.89-1.78,1.26-2.67,2.96-2.67,5.11,0,1.1.21,2.1.64,2.99.43.89,1.18,1.69,2.26,2.39,1.07.71,2.49,1.33,4.23,1.89,1.75.55,3.97,1.07,6.67,1.57,6.75,1.23,11.9,3.28,15.46,6.17,3.56,2.88,5.34,7.15,5.34,12.79v1.1c0,3.01-.54,5.72-1.61,8.15-1.07,2.42-2.62,4.5-4.65,6.21-2.02,1.72-4.48,3.04-7.36,3.96-2.89.92-6.14,1.38-9.76,1.38-4.23,0-7.96-.6-11.18-1.79-3.22-1.2-5.91-2.85-8.05-4.97-2.15-2.12-3.77-4.6-4.88-7.46s-1.66-5.97-1.66-9.34v-2.76h12.15v2.21c0,3.87,1.12,6.95,3.36,9.25,2.24,2.3,5.72,3.45,10.45,3.45,3.68,0,6.41-.8,8.19-2.39,1.78-1.6,2.67-3.5,2.67-5.71,0-1.04-.18-2.04-.55-2.99-.37-.95-1.01-1.81-1.93-2.58-.92-.77-2.18-1.46-3.77-2.07-1.6-.61-3.62-1.13-6.08-1.56-3.25-.55-6.23-1.27-8.93-2.16-2.7-.89-5.05-2.07-7.04-3.54-2-1.47-3.54-3.31-4.65-5.52-1.1-2.21-1.66-4.91-1.66-8.1v-.55c0-2.64.54-5.08,1.61-7.32,1.07-2.24,2.58-4.19,4.51-5.84,1.93-1.66,4.26-2.95,7-3.87,2.73-.92,5.78-1.38,9.16-1.38,3.8,0,7.18.54,10.13,1.61,2.95,1.08,5.42,2.53,7.41,4.37,1.99,1.84,3.5,3.96,4.51,6.35,1.01,2.39,1.52,4.91,1.52,7.55v3.31h-12.15v-2.21Z"/></svg>